<svg width="21" height="21" fill="none" xmlns="http://www.w3.org/2000/svg"><path d="M8.863 9.607c.969-.5 1.5-1.219 1.5-2.313 0-2.218-1.656-2.75-3.531-2.75h-5.22v11.063h5.345c2.03 0 3.906-.969 3.906-3.219 0-1.375-.656-2.406-2-2.781ZM4.019 6.419h2.313c.875 0 1.656.25 1.656 1.282 0 .937-.625 1.312-1.5 1.312H4.019V6.42Zm2.625 7.313H4.019v-3.063h2.656c1.094 0 1.75.47 1.75 1.594 0 1.125-.812 1.469-1.781 1.469ZM17.831 6.2h-4.468V5.107h4.468V6.2Zm1.782 5.53c0-2.374-1.407-4.374-3.906-4.374-2.47 0-4.126 1.844-4.126 4.25 0 2.5 1.594 4.219 4.126 4.219 1.906 0 3.156-.875 3.75-2.688h-1.938c-.219.688-1.094 1.031-1.75 1.031-1.281 0-1.969-.75-1.969-2.03h5.781c0-.126.032-.282.032-.407Zm-5.813-1c.063-1.03.781-1.687 1.813-1.687 1.125 0 1.687.625 1.781 1.688H13.8Z" fill="#fff" fill-opacity=".75"/></svg>