<svg width="20" height="21" viewBox="0 0 20 21" fill="none" xmlns="http://www.w3.org/2000/svg">
<path d="M10 2.5C8.60417 2.5 7.3125 2.85417 6.125 3.5625C4.9375 4.25 3.98958 5.1875 3.28125 6.375C2.59375 7.5625 2.25 8.85417 2.25 10.25C2.25 11.6458 2.59375 12.9375 3.28125 14.125C3.98958 15.3125 4.9375 16.25 6.125 16.9375C7.3125 17.6458 8.60417 18 10 18C11.3958 18 12.6875 17.6458 13.875 16.9375C15.0625 16.25 16 15.3125 16.6875 14.125C17.3958 12.9375 17.75 11.6458 17.75 10.25C17.75 8.85417 17.3958 7.5625 16.6875 6.375C16 5.1875 15.0625 4.25 13.875 3.5625C12.6875 2.85417 11.3958 2.5 10 2.5ZM15.125 6.0625C15.6042 6.64583 15.9687 7.29167 16.2187 8C16.4687 8.6875 16.6042 9.41667 16.625 10.1875C16.1667 10.1042 15.6458 10.0313 15.0625 9.96875C13.9583 9.86458 12.9375 9.875 12 10C11.8125 9.54167 11.625 9.10417 11.4375 8.6875C12.4583 8.27083 13.3646 7.72917 14.1563 7.0625C14.5729 6.70833 14.8958 6.375 15.125 6.0625ZM14.375 5.3125C14.1875 5.60417 13.8958 5.91667 13.5 6.25C12.7708 6.85417 11.9062 7.33333 10.9062 7.6875C10.1562 6.29167 9.33333 5 8.4375 3.8125C9.5 3.5625 10.5521 3.57292 11.5938 3.84375C12.6354 4.09375 13.5625 4.58333 14.375 5.3125ZM7.1875 4.28125C8.0625 5.46875 8.875 6.73958 9.625 8.09375C8.33333 8.44792 6.96875 8.6875 5.53125 8.8125C4.76042 8.875 4.09375 8.90625 3.53125 8.90625C3.73958 7.88542 4.16667 6.96875 4.8125 6.15625C5.45833 5.34375 6.25 4.71875 7.1875 4.28125ZM3.375 10.25C3.375 10.1875 3.375 10.125 3.375 10.0625C4.02083 10.0625 4.78125 10.0313 5.65625 9.96875C7.28125 9.82292 8.79167 9.54167 10.1875 9.125C10.3958 9.5 10.5729 9.875 10.7188 10.25C9.57292 10.5625 8.46875 11.1562 7.40625 12.0312C6.42708 12.8229 5.65625 13.7083 5.09375 14.6875C4.55208 14.0833 4.125 13.4063 3.8125 12.6563C3.52083 11.8854 3.375 11.0833 3.375 10.25ZM5.9375 15.4688C6.3125 14.6979 6.9375 13.9479 7.8125 13.2187C8.79167 12.3854 9.91667 11.7604 11.1875 11.3438C11.8542 13.0729 12.3229 14.7396 12.5938 16.3438C11.5104 16.8021 10.3646 16.9583 9.15625 16.8125C7.96875 16.6875 6.89583 16.2396 5.9375 15.4688ZM13.6875 15.75C13.4375 14.2708 13.0104 12.6979 12.4063 11.0312C13.2813 10.8854 14.1979 10.8854 15.1563 11.0312C15.6979 11.0937 16.1563 11.1875 16.5313 11.3125C16.3854 12.2292 16.0625 13.0729 15.5625 13.8437C15.0625 14.6146 14.4375 15.25 13.6875 15.75Z" fill="white"/>
</svg>
