<svg width="21" height="21" fill="none" xmlns="http://www.w3.org/2000/svg"><path d="M10.687 10.193a2.67 2.67 0 1 1 5.339 0 2.67 2.67 0 0 1-5.339 0ZM5.348 15.532a2.67 2.67 0 0 1 2.67-2.67h2.669v2.67a2.67 2.67 0 1 1-5.339 0Z" fill="#fff" fill-opacity=".75"/><path d="M10.687 2.185v5.339h2.67a2.67 2.67 0 1 0 0-5.339h-2.67Z" fill="#fff" fill-opacity=".75"/><path d="M5.348 4.854a2.67 2.67 0 0 0 2.67 2.67h2.669V2.185h-2.67a2.67 2.67 0 0 0-2.669 2.67Z" fill="#fff" fill-opacity=".75"/><path d="M5.348 10.193a2.67 2.67 0 0 0 2.67 2.67h2.669v-5.34h-2.67a2.67 2.67 0 0 0-2.669 2.67Z" fill="#fff" fill-opacity=".75"/></svg>