<svg width="20" height="21" viewBox="0 0 20 21" fill="none" xmlns="http://www.w3.org/2000/svg">
<path d="M7.4375 14.8491C7.4375 14.8283 7.41667 14.8075 7.375 14.7866C7.35417 14.7658 7.3125 14.7554 7.25 14.7554C7.14583 14.7554 7.09375 14.797 7.09375 14.8804C7.09375 14.9637 7.14583 15.0054 7.25 15.0054C7.375 14.9845 7.4375 14.9325 7.4375 14.8491ZM6.46875 14.7241C6.48958 14.6408 6.55208 14.62 6.65625 14.6616C6.76042 14.6825 6.80208 14.7241 6.78125 14.7866C6.78125 14.8283 6.76042 14.8595 6.71875 14.8804C6.67708 14.9012 6.63542 14.9012 6.59375 14.8804C6.55208 14.8595 6.51042 14.8387 6.46875 14.8179C6.44792 14.7762 6.44792 14.745 6.46875 14.7241ZM7.84375 14.6616C7.94792 14.6616 8 14.6929 8 14.7554C8.02083 14.8179 7.97917 14.87 7.875 14.9116C7.83333 14.9116 7.79167 14.9116 7.75 14.9116C7.72917 14.8908 7.70833 14.8491 7.6875 14.7866C7.6875 14.7241 7.73958 14.6825 7.84375 14.6616ZM9.90625 2.69287C11.3229 2.69287 12.6354 3.0262 13.8438 3.69287C15.0521 4.35954 16 5.26579 16.6875 6.41162C17.3958 7.59912 17.75 8.9012 17.75 10.3179C17.75 12.047 17.2604 13.5991 16.2813 14.9741C15.3229 16.3283 14.0625 17.2658 12.5 17.7866C12.3333 17.8283 12.1979 17.8075 12.0938 17.7241C12.0104 17.6408 11.9688 17.5366 11.9688 17.4116V14.7866C11.9688 14.12 11.7917 13.6408 11.4375 13.3491C12.2083 13.2658 12.7813 13.1616 13.1563 13.0366C13.7396 12.8283 14.1875 12.5158 14.5 12.0991C14.8542 11.5575 15.0313 10.8179 15.0313 9.88037C15.0313 9.48454 14.9583 9.14079 14.8125 8.84912C14.7083 8.64079 14.5104 8.38037 14.2188 8.06787C14.3021 7.85954 14.3542 7.60954 14.375 7.31787C14.3958 6.85954 14.3229 6.4012 14.1563 5.94287C13.9479 5.88037 13.6563 5.92204 13.2813 6.06787C13.0313 6.17204 12.7396 6.31787 12.4063 6.50537L12 6.78662C11.3542 6.59912 10.6875 6.50537 10 6.50537C9.33333 6.50537 8.6875 6.59912 8.0625 6.78662L7.65625 6.50537C7.32292 6.31787 7.02083 6.17204 6.75 6.06787C6.375 5.92204 6.09375 5.88037 5.90625 5.94287C5.71875 6.4012 5.64583 6.85954 5.6875 7.31787C5.6875 7.60954 5.72917 7.84912 5.8125 8.03662C5.5625 8.34912 5.375 8.64079 5.25 8.91162C5.14583 9.16162 5.09375 9.48454 5.09375 9.88037C5.09375 10.8179 5.26042 11.547 5.59375 12.0679C5.88542 12.5054 6.32292 12.8283 6.90625 13.0366C7.28125 13.1616 7.84375 13.2658 8.59375 13.3491C8.32292 13.5991 8.15625 13.9533 8.09375 14.4116C7.73958 14.5783 7.39583 14.6408 7.0625 14.5991C6.52083 14.5575 6.10417 14.2762 5.8125 13.7554C5.6875 13.5262 5.52083 13.3387 5.3125 13.1929C5.16667 13.1095 5.01042 13.0366 4.84375 12.9741L4.625 12.9429C4.39583 12.9429 4.27083 12.9845 4.25 13.0679C4.25 13.1304 4.30208 13.2033 4.40625 13.2866L4.5625 13.4116C4.70833 13.495 4.85417 13.6304 5 13.8179C5.125 13.9637 5.22917 14.1304 5.3125 14.3179L5.4375 14.5679C5.54167 14.8804 5.73958 15.12 6.03125 15.2866C6.28125 15.4325 6.58333 15.5262 6.9375 15.5679C7.1875 15.5887 7.44792 15.5783 7.71875 15.5366L8.0625 15.5054L8.09375 17.4116C8.09375 17.5366 8.04167 17.6408 7.9375 17.7241C7.85417 17.8075 7.72917 17.8283 7.5625 17.7866C5.97917 17.2658 4.69792 16.3283 3.71875 14.9741C2.73958 13.5991 2.25 12.047 2.25 10.3179C2.25 8.9012 2.58333 7.60954 3.25 6.44287C3.91667 5.2762 4.83333 4.35954 6 3.69287C7.16667 3.0262 8.46875 2.69287 9.90625 2.69287ZM5.28125 13.4741C5.32292 13.4325 5.375 13.4429 5.4375 13.5054C5.5 13.5679 5.51042 13.62 5.46875 13.6616C5.42708 13.7033 5.375 13.6929 5.3125 13.6304C5.25 13.5679 5.23958 13.5158 5.28125 13.4741ZM4.9375 13.2241C4.97917 13.1825 5.03125 13.1825 5.09375 13.2241C5.15625 13.245 5.17708 13.2866 5.15625 13.3491C5.13542 13.3908 5.08333 13.3908 5 13.3491C4.9375 13.3075 4.91667 13.2658 4.9375 13.2241ZM5.96875 14.3179C5.98958 14.297 6.02083 14.297 6.0625 14.3179C6.10417 14.3179 6.13542 14.3387 6.15625 14.3804C6.19792 14.4012 6.21875 14.4325 6.21875 14.4741C6.23958 14.5158 6.23958 14.547 6.21875 14.5679C6.15625 14.6304 6.08333 14.62 6 14.5366C5.95833 14.495 5.9375 14.4533 5.9375 14.4116C5.9375 14.37 5.94792 14.3387 5.96875 14.3179ZM5.59375 13.8804C5.63542 13.8595 5.66667 13.8595 5.6875 13.8804C5.72917 13.8804 5.76042 13.9012 5.78125 13.9429C5.84375 14.0262 5.84375 14.0887 5.78125 14.1304C5.76042 14.1512 5.72917 14.1512 5.6875 14.1304C5.66667 14.1095 5.63542 14.0887 5.59375 14.0679C5.55208 13.9637 5.55208 13.9012 5.59375 13.8804Z" fill="white"/>
</svg>
