<svg width="20" height="21" fill="none" xmlns="http://www.w3.org/2000/svg"><path d="M10 2.5c-4.281 0-7.75 3.5-7.75 7.75A7.749 7.749 0 0 0 10 18c4.25 0 7.75-3.469 7.75-7.75C17.75 6 14.25 2.5 10 2.5Zm3.125 11.406a.528.528 0 0 1-.313-.094c-1.968-1.187-4.218-1.218-6.468-.78-.125.03-.282.093-.375.093-.313 0-.5-.25-.5-.5 0-.313.187-.469.437-.531 2.563-.563 5.157-.5 7.407.812.187.125.28.25.28.531a.46.46 0 0 1-.468.47Zm.844-2.031c-.156 0-.281-.094-.375-.125-1.969-1.156-4.875-1.625-7.469-.938-.156.032-.219.094-.375.094-.313 0-.594-.281-.594-.625 0-.312.157-.531.469-.625.875-.25 1.781-.437 3.063-.437 2.03 0 4 .5 5.53 1.437.25.125.376.344.376.594-.031.344-.281.625-.625.625Zm.969-2.375c-.157 0-.25-.063-.407-.125-2.219-1.344-6.187-1.656-8.781-.938-.094.032-.25.094-.406.094-.407 0-.719-.344-.719-.75 0-.437.281-.656.563-.75C6.28 6.72 7.5 6.563 8.844 6.563c2.281 0 4.687.468 6.406 1.5.25.124.406.312.406.687 0 .438-.344.75-.719.75Z" fill="#fff" fill-opacity=".75"/></svg>